<svg width="110" height="110" viewBox="0 0 110 110" fill="none" xmlns="http://www.w3.org/2000/svg">
<rect width="110" height="110" fill="#0F171A"/>
<path d="M22.325 73L15.5 56.825H19.175L24.95 71.15L23.875 71.175L29.375 56.825H33.2L38.7 71.175L37.625 71.15L43.4 56.825H47L40.25 73H36.175L30.775 58.975H31.825L26.4 73H22.325ZM48.8951 56.825H52.2201V73H48.8951V56.825ZM58.8506 56.825V70.225H69.6006V73H55.5256V56.825H58.8506ZM80.9387 56.825C82.7553 56.825 84.272 57.0417 85.4887 57.475C86.7053 57.9083 87.672 58.5 88.3887 59.25C89.122 59.9833 89.6387 60.8333 89.9387 61.8C90.2553 62.7667 90.4137 63.7833 90.4137 64.85C90.4137 65.9167 90.2387 66.9417 89.8887 67.925C89.5553 68.9083 89.0137 69.7833 88.2637 70.55C87.5303 71.3 86.5553 71.9 85.3387 72.35C84.1387 72.7833 82.672 73 80.9387 73H71.6887V56.825H80.9387ZM75.0137 70.15H80.8637C82.0637 70.15 83.0553 70.0083 83.8387 69.725C84.6387 69.425 85.272 69.025 85.7387 68.525C86.2053 68.025 86.5387 67.4583 86.7387 66.825C86.9387 66.1917 87.0387 65.5333 87.0387 64.85C87.0387 64.1667 86.9387 63.5167 86.7387 62.9C86.5387 62.2833 86.2053 61.7333 85.7387 61.25C85.272 60.7667 84.6387 60.3833 83.8387 60.1C83.0553 59.8167 82.0637 59.675 80.8637 59.675H75.0137V70.15Z" fill="#F8F7F3"/>
<path d="M31.1201 83.696C31.7761 83.696 32.2881 83.6 32.6561 83.408C33.0401 83.2 33.2321 82.896 33.2321 82.496C33.2321 82.208 33.1521 81.976 32.9921 81.8C32.8481 81.624 32.5681 81.456 32.1521 81.296C31.7361 81.12 31.0881 80.912 30.2081 80.672C28.9281 80.336 27.9521 79.872 27.2801 79.28C26.6081 78.672 26.2721 77.84 26.2721 76.784C26.2721 75.616 26.7521 74.664 27.7121 73.928C28.6881 73.192 30.0481 72.824 31.7921 72.824C33.8081 72.824 35.5281 73.344 36.9521 74.384L35.4401 76.616C34.2721 75.896 33.0961 75.536 31.9121 75.536C31.2881 75.536 30.8241 75.616 30.5201 75.776C30.2321 75.936 30.0881 76.184 30.0881 76.52C30.0881 76.744 30.1601 76.936 30.3041 77.096C30.4641 77.24 30.7521 77.392 31.1681 77.552C31.6001 77.712 32.2401 77.912 33.0881 78.152C34.0001 78.408 34.7441 78.688 35.3201 78.992C35.9121 79.296 36.3681 79.704 36.6881 80.216C37.0081 80.728 37.1681 81.384 37.1681 82.184C37.1681 83.08 36.8961 83.848 36.3521 84.488C35.8081 85.128 35.0801 85.608 34.1681 85.928C33.2561 86.248 32.2481 86.408 31.1441 86.408C29.9601 86.408 28.8881 86.24 27.9281 85.904C26.9681 85.568 26.1521 85.096 25.4801 84.488L27.3761 82.352C28.5281 83.248 29.7761 83.696 31.1201 83.696ZM41.2868 80.744C41.5268 82.68 42.5508 83.648 44.3588 83.648C45.4468 83.648 46.5348 83.296 47.6228 82.592L49.1348 84.656C48.5108 85.2 47.7668 85.632 46.9028 85.952C46.0388 86.256 45.0868 86.408 44.0468 86.408C42.6228 86.408 41.4148 86.128 40.4228 85.568C39.4308 84.992 38.6788 84.2 38.1668 83.192C37.6708 82.168 37.4228 80.984 37.4228 79.64C37.4228 78.36 37.6628 77.208 38.1428 76.184C38.6388 75.144 39.3508 74.328 40.2788 73.736C41.2228 73.128 42.3428 72.824 43.6388 72.824C44.8548 72.824 45.9108 73.088 46.8068 73.616C47.7028 74.128 48.3908 74.88 48.8708 75.872C49.3668 76.848 49.6148 78.016 49.6148 79.376C49.6148 79.904 49.5908 80.36 49.5428 80.744H41.2868ZM43.6388 75.368C42.9508 75.368 42.3988 75.624 41.9828 76.136C41.5668 76.632 41.3188 77.4 41.2388 78.44H45.9188C45.8868 76.392 45.1268 75.368 43.6388 75.368ZM59.7094 72.872C60.4774 72.872 61.1814 73 61.8214 73.256L61.1254 78.584H58.7254V76.232C58.0214 76.36 57.3974 76.744 56.8534 77.384C56.3094 78.024 55.8854 78.832 55.5814 79.808V83.456H58.1014V86H50.1094V83.456H51.7894V75.776H50.1094V73.256H54.6934L55.3654 76.112C55.8294 75.024 56.4134 74.216 57.1174 73.688C57.8214 73.144 58.6854 72.872 59.7094 72.872ZM67.476 66.584C68.132 66.584 68.668 66.792 69.084 67.208C69.5 67.608 69.708 68.112 69.708 68.72C69.708 69.344 69.5 69.856 69.084 70.256C68.668 70.656 68.132 70.856 67.476 70.856C66.82 70.856 66.276 70.656 65.844 70.256C65.428 69.84 65.22 69.328 65.22 68.72C65.22 68.112 65.428 67.608 65.844 67.208C66.276 66.792 66.82 66.584 67.476 66.584ZM69.756 83.408H73.02V86H62.364V83.408H65.964V75.848H62.484V73.256H69.756V83.408ZM77.2586 80.744C77.4986 82.68 78.5226 83.648 80.3306 83.648C81.4186 83.648 82.5066 83.296 83.5946 82.592L85.1066 84.656C84.4826 85.2 83.7386 85.632 82.8746 85.952C82.0106 86.256 81.0586 86.408 80.0186 86.408C78.5946 86.408 77.3866 86.128 76.3946 85.568C75.4026 84.992 74.6506 84.2 74.1386 83.192C73.6426 82.168 73.3946 80.984 73.3946 79.64C73.3946 78.36 73.6346 77.208 74.1146 76.184C74.6106 75.144 75.3226 74.328 76.2506 73.736C77.1946 73.128 78.3146 72.824 79.6106 72.824C80.8266 72.824 81.8826 73.088 82.7786 73.616C83.6746 74.128 84.3626 74.88 84.8426 75.872C85.3386 76.848 85.5866 78.016 85.5866 79.376C85.5866 79.904 85.5626 80.36 85.5146 80.744H77.2586ZM79.6106 75.368C78.9226 75.368 78.3706 75.624 77.9546 76.136C77.5386 76.632 77.2906 77.4 77.2106 78.44H81.8906C81.8586 76.392 81.0986 75.368 79.6106 75.368ZM91.0733 83.696C91.7293 83.696 92.2413 83.6 92.6093 83.408C92.9933 83.2 93.1853 82.896 93.1853 82.496C93.1853 82.208 93.1053 81.976 92.9453 81.8C92.8013 81.624 92.5213 81.456 92.1053 81.296C91.6893 81.12 91.0413 80.912 90.1613 80.672C88.8813 80.336 87.9053 79.872 87.2333 79.28C86.5613 78.672 86.2253 77.84 86.2253 76.784C86.2253 75.616 86.7053 74.664 87.6653 73.928C88.6413 73.192 90.0013 72.824 91.7453 72.824C93.7613 72.824 95.4813 73.344 96.9053 74.384L95.3933 76.616C94.2253 75.896 93.0493 75.536 91.8653 75.536C91.2413 75.536 90.7773 75.616 90.4733 75.776C90.1853 75.936 90.0413 76.184 90.0413 76.52C90.0413 76.744 90.1133 76.936 90.2573 77.096C90.4173 77.24 90.7053 77.392 91.1213 77.552C91.5533 77.712 92.1933 77.912 93.0413 78.152C93.9533 78.408 94.6973 78.688 95.2733 78.992C95.8653 79.296 96.3213 79.704 96.6413 80.216C96.9613 80.728 97.1213 81.384 97.1213 82.184C97.1213 83.08 96.8493 83.848 96.3053 84.488C95.7613 85.128 95.0333 85.608 94.1213 85.928C93.2093 86.248 92.2013 86.408 91.0973 86.408C89.9133 86.408 88.8413 86.24 87.8813 85.904C86.9213 85.568 86.1053 85.096 85.4333 84.488L87.3293 82.352C88.4813 83.248 89.7293 83.696 91.0733 83.696Z" fill="#EE3E36"/>
<mask id="mask0_6_30" style="mask-type:alpha" maskUnits="userSpaceOnUse" x="30" y="11" width="45" height="45">
<path fill-rule="evenodd" clip-rule="evenodd" d="M64.2773 11C70.7812 11 75 15.2188 75 21.7227V45.2773C75 51.7812 70.7812 56 64.2773 56H40.7227C34.2188 56 30 51.7812 30 45.2773V21.7227C30 15.2188 34.2188 11 40.7227 11H64.2773Z" fill="white"/>
</mask>
<g mask="url(#mask0_6_30)">
<mask id="mask1_6_30" style="mask-type:alpha" maskUnits="userSpaceOnUse" x="41" y="14" width="27" height="52">
<path fill-rule="evenodd" clip-rule="evenodd" d="M54.745 14.0016C61.6313 14.0016 67.0401 19.5409 67.1231 26.4075L53.1137 26.4072C53.178 26.4318 56.1367 27.5479 59.3174 29.3038C62.0514 30.8131 65.0724 32.8985 66.6803 35.6538C67.695 37.3928 68.181 39.503 67.7029 41.7362C67.0657 44.7113 65.28 47.6477 63.0241 50.8636C57.837 58.2583 51.6016 65.6379 51.6016 65.6379L51.8101 59.0322L44.1761 58.9456C44.1761 58.9456 42.9501 55.6426 42.4286 51.1827C41.9973 47.4948 41.7805 42.9891 41.7666 40.091C41.7453 35.6184 42.2487 26.4072 42.2487 26.4072C42.3352 19.5407 47.8588 14.0016 54.745 14.0016Z" fill="white"/>
</mask>
<g mask="url(#mask1_6_30)">
<path fill-rule="evenodd" clip-rule="evenodd" d="M54.5615 14.0002C47.6752 14.0002 42.0829 19.541 41.9999 26.4077H67.1231C67.0401 19.541 61.4479 14.0002 54.5615 14.0002Z" fill="#FECD07"/>
<path fill-rule="evenodd" clip-rule="evenodd" d="M51.8099 66.0556C51.8099 66.0556 57.7815 58.2492 62.9686 50.8546C65.2246 47.6385 67.026 44.7474 67.6631 41.7724C68.1416 39.5392 67.7062 37.4213 66.6914 35.6823C65.0836 32.927 61.9244 30.7544 59.1903 29.245C55.9747 27.4698 53.084 26.4072 53.084 26.4072H41.9966C41.9966 26.4072 41.4937 35.5851 41.515 40.0577C41.5288 42.9558 41.7286 47.6681 42.16 51.3564C42.6815 55.8159 43.9258 59.0322 43.9258 59.0322H51.8099V66.0556Z" fill="#2FAADD"/>
<path fill-rule="evenodd" clip-rule="evenodd" d="M59.1308 20.288C59.1308 16.9454 56.2716 14.2429 52.9342 14.219H39.5769V26.4039L38.6216 26.4072C38.6216 26.4072 38.1187 35.5851 38.14 40.0577C38.1538 42.9558 38.3536 47.6681 38.785 51.3564C39.3065 55.8159 40.5508 59.0323 40.5508 59.0323H48.4349L50.49 65.9371C50.49 65.9371 55.3381 59.0158 60.4145 51.4524C63.0777 47.4843 64.0924 45.4386 64.7296 42.4635C65.2078 40.2304 64.5517 37.0279 63.537 35.2889C62.7404 33.9238 60.9902 32.0109 58.5849 30.0781C56.3703 28.2986 53.5715 26.6956 53.0547 26.4043C56.3391 26.3229 59.1308 23.594 59.1308 20.288Z" fill="#EE3E36"/>
<path fill-rule="evenodd" clip-rule="evenodd" d="M52.9929 24.6747C55.3746 24.6747 57.3054 22.744 57.3054 20.3622C57.3054 17.9805 55.3746 16.0497 52.9929 16.0497C50.6111 16.0497 48.6804 17.9805 48.6804 20.3622C48.6804 22.744 50.6111 24.6747 52.9929 24.6747Z" fill="white"/>
<path d="M52.9644 22.035C53.8964 22.035 54.6519 21.2795 54.6519 20.3475C54.6519 19.4155 53.8964 18.66 52.9644 18.66C52.0324 18.66 51.2769 19.4155 51.2769 20.3475C51.2769 21.2795 52.0324 22.035 52.9644 22.035Z" fill="#2FAADD" stroke="#5A5DAA" stroke-width="2.5"/>
<path fill-rule="evenodd" clip-rule="evenodd" d="M41.4037 51.0822C41.6509 51.3556 42.3759 51.2326 42.3759 51.2326C42.3759 51.2326 52.7044 50.5576 58.2003 45.7128C60.3712 43.7991 62.3024 41.1289 61.7655 37.7535C61.5156 36.5825 61.1515 35.5729 60.6095 34.7253C59.4016 32.8362 57.541 31.7444 55.7259 31.4133C51.2156 30.5904 45.8422 34.2741 43.1876 39.2515C42.2421 41.0244 41.4037 42.7223 41.4037 44.7726C41.4037 50.2573 41.1649 50.8182 41.4037 51.0822Z" fill="white"/>
<path fill-rule="evenodd" clip-rule="evenodd" d="M35.3035 50.477C35.3035 50.477 56.1416 50.6712 59.9967 40.5149C61.4446 36.7003 59.7976 34.2013 58.4692 32.8032C56.2609 30.479 53.0173 30.8152 53.0173 30.8152C53.0173 30.8152 50.0247 30.9235 47.1019 33.4761C45.7009 34.6995 44.371 36.5674 43.2779 38.4472C42.3259 40.0845 41.5689 41.7226 40.9057 43.0573C37.9073 49.0917 35.3035 50.477 35.3035 50.477Z" fill="url(#paint0_linear_6_30)"/>
</g>
<mask id="mask2_6_30" style="mask-type:alpha" maskUnits="userSpaceOnUse" x="35" y="30" width="26" height="21">
<path fill-rule="evenodd" clip-rule="evenodd" d="M35.3035 50.477C35.3035 50.477 56.1416 50.6712 59.9967 40.5149C61.4446 36.7003 59.7976 34.2013 58.4692 32.8032C56.2609 30.479 53.0173 30.8152 53.0173 30.8152C53.0173 30.8152 50.0247 30.9235 47.1019 33.4761C45.7009 34.6995 44.371 36.5674 43.2779 38.4472C42.3259 40.0845 41.5689 41.7226 40.9057 43.0573C37.9073 49.0917 35.3035 50.477 35.3035 50.477Z" fill="white"/>
</mask>
<g mask="url(#mask2_6_30)">
<path fill-rule="evenodd" clip-rule="evenodd" d="M41.0006 41.4571C41.0006 41.4571 45.8609 39.5275 43.8515 43.4169C43.2059 44.6022 44.3965 43.879 45.6013 43.2573C46.8062 42.6356 47.4787 42.6401 47.4787 42.6401C47.4787 42.6401 48.8081 42.5056 48.2593 43.5297C47.7105 44.5537 44.7263 47.0205 44.7263 47.0205C44.7263 47.0205 43.6048 47.8377 45.5417 47.5256C47.4787 47.2136 45.0864 49.292 44.4158 49.7255C43.7453 50.159 39.6636 51.0162 39.6636 51.0162L35.0288 51.0627L34.1163 49.6381L41.0006 41.4571Z" fill="#D6DF20"/>
</g>
</g>
<defs>
<linearGradient id="paint0_linear_6_30" x1="49.7775" y1="48.7906" x2="59.0059" y2="37.9138" gradientUnits="userSpaceOnUse">
<stop stop-color="#69BD44"/>
<stop offset="1" stop-color="#3AB549"/>
</linearGradient>
</defs>
</svg>
